# xmcd
#
# Track frame offsets:
#	150
#	19150
#	36142
#	46760
#	60770
#	78117
#	89867
#	106270
#	119797
#	134247
#	146495
#	161702
#
# Disc length: 2353 seconds
#
# Revision: 5
# Processed by: cddbd v1.5.2PL0 Copyright (c) Steve Scherf et al.
# Submitted via: audiograbber 1.83.01
#
DISCID=a3092f0c
DTITLE=City - Now That Everything's Been Said
DYEAR=1968
DGENRE=Oldies
TTITLE0=Snow Queen
TTITLE1=I Wasn't Born To Follow
TTITLE2=Now That Everything's Been Said
TTITLE3=Paradise Alley
TTITLE4=Man Without A Dream
TTITLE5=Victim Of Circumstance
TTITLE6=Why Are You Leaving
TTITLE7=Lady
TTITLE8=My Sweet Home
TTITLE9=I Don't Believe It
TTITLE10=That Old Sweet Roll (Hi-De-Ho)
TTITLE11=All My Time
EXTD=
EXTT0=
EXTT1=
EXTT2=
EXTT3=
EXTT4=
EXTT5=
EXTT6=
EXTT7=
EXTT8=
EXTT9=
EXTT10=
EXTT11=
PLAYORDER=
